<svg id="Layer_1" enable-background="new 0 0 50 50" height="512" viewBox="0 0 50 50" width="512" xmlns="http://www.w3.org/2000/svg"><g><g><g><g><path d="m24.4941006 20.7875671c-.4001465-1.4345703.024292-2.9985352-1.4147949-3.3837891-1.6389771-.4384766-5.427124.3823242-6.6146851 5.4135742-1.6494751 6.9882813 1.7250366 11.5327148-6.2526245 11.2958984v4.2363281c2.7205811.1552734 6.4185181.0874023 9.6415405-.9580078 1.7661133-.5727539 3.1367798-1.9707031 3.6871338-3.7436523 1.0217285-3.2919921 1.9559936-9.2656249.9534302-12.8603515z" fill="#5faf5f"/><path d="m40.1785316 31.2266159c0-5.999382-3.5859795-8.0613651-3.5859795-8.0613651l-3.321434-2.3895855-9.6853867-3.4745121c-6.1180325.8285065-8.6749554 12.5124817-8.3738813 13.9431362.301074 1.4297714 6.6427031 8.6228485 15.6750441 10.8811302 5.6451988 1.4112015 7.8599319-.2113304 8.7271233-1.6269531.3836899-.6260223.5520782-1.3674355.5631294-2.1017723.0660401-4.3834839.0013847-7.1700783.0013847-7.1700783z" fill="#77cb77"/><g><g><g><path d="m23.585743 17.3014107 9.6853027 3.473774.5571594.4009342c-3.2532845 4.4275417-8.1780472 8.4727402-8.1780472 8.4727402-1.8322124-6.3091889-2.0644149-12.3474484-2.0644149-12.3474484z" fill="#f4f5f0"/></g></g></g><path d="m33.2710457 17.485693v3.2894917s-1.4906445 2.8085842-6.1191406 3.4116898c-.4263382.0551872-.8748493-.0936184-1.1612511-.4138966-.6628494-.7420559-1.6845341-2.4912624-1.6500416-6.2005634v-2.2005491z" fill="#f7c9a4"/></g><path d="m23.0470562 10.2759237s-1.7261467 8.8796186 2.5641861 10.5365744c4.2903347 1.6569576 9.1323032-2.6313381 10.0618801-7.1484489s-9.464201-7.2595988-12.6260662-3.3881255z" fill="#f9d5b4"/></g><g><path d="m35.6773758 13.6674852s-.1512146-1.8655539-1.6738396-.9379463c0 0-.6756401-.1408157-.7361412 2.8640594l-.645298.2417498s-.0403748-2.1880493-.9882298-3.7508011c-.5343952-.8975735-1.7041206-1.1900349-2.6721001-.7867918-1.2302246.5145159-3.317524.9379463-5.445137-.6449928-.3629932.4332771-.6293373 1.1656437-.7806168 2.3453388 0 0-.2378311-1.7101936.2058487-2.8194818-.1814976-.1915274-.2722149-.4436159-.2520885-.7060442.1310902-1.5425649 1.0386333-6.5744877 7.0181656-6.5744877 7.0584755 0 7.3710633 7.1190386 5.9694367 10.7693977z" fill="#885e4b"/><g><g enable-background="new"><g><path d="m36.7153091 4.1000896v5.932776c0 1.0394754-.6875381 2.0789518-2.0543747 2.8810387-2.7582455 1.5957804-7.2353153 1.5957804-10.0098972 0-1.3996067-.8104801-2.0952873-1.8663406-2.0952873-2.9222021v-5.900005l7.0797539 2.6112781z" fill="#272e3a"/></g></g></g><g><g><g><path d="m39.899334 4.7800951-10.2624512 3.7802343-10.2624035-3.7802343 10.2624035-3.7800951z" fill="#4c5671"/></g><g><path d="m39.8957748 4.7822824v.5433487l-10.2585201 3.7755871-10.2585792-3.7755871v-.5433487l10.2585792 3.7755875 10.2494602-3.7755875z" fill="#373f51"/></g><ellipse cx="30.036" cy="4.919" fill="#b4bed7" rx="1.158" ry=".556"/></g><path d="m30.1476421 4.7826433 4.5735302 1.6851869c.0759735.027626.1262016.0998306.1262016.1808257v5.5714588c.277359.0841341.4830666.3321419.4830666.6366577 0 .1720352-.0692253.3239794-.1747055.443902l.3188019 1.9439211h-1.6398354l.3188019-1.9439211c-.1054039-.1199226-.1747055-.2718668-.1747055-.443902 0-.3045158.2057037-.5525236.4830666-.6366577v-5.4370952l-4.4473305-1.6380968c-.0998306-.0370445-.1513157-.1475492-.1142712-.2480078.0364151-.0992031.1475487-.1513161.2473793-.1142716z" fill="#ed5d71"/></g></g></g><g><g><g><path d="m37.8031731 41.9889717-10.6403084 6.1814499c-.2697029.1610031-.7090664.1610031-.9831238 0l-17.417717-10.0529823c-.2740574-.1565437-.2740574-.4133415-.0043545-.5698853l10.6403103-6.1856976c.2697029-.1567554.7133923-.1567554.9874496 0l17.4177437 10.05723c.2740594.1567536.269703.4133416.0000001.5698853z" fill="#d3dbea"/></g><g><g enable-background="new"><g><path d="m33.044384 39.5175514c.1444244.0833817.1452026.2180672.0044823.2998428l-2.9635239 1.7222099c-.1434155.0833473-.3759327.0833359-.5203571-.0000458l-5.8380489-3.3706017c-.1444244-.0833817-.1452065-.2180672-.001791-.3014107l2.963522-1.7222137c.1407204-.0817757.3732433-.0817642.5176678.0016174z" fill="#b4bed7"/></g><path d="m37.8043938 41.9891815-10.6399899 6.1831512c-.2703667.1571808-.7104454.1586647-.985405 0l-17.4169483-10.0557403c-.1369753-.0790176-.2054234-.1833076-.2051315-.2873878l-.0019913.7092247c-.0003185.1040802.0681295.2083702.2051315.2873878l17.4169217 10.0557404c.2749596.1586647.7150383.1571808.985405 0l10.6399899-6.1833611c.1347466-.078167.2026634-.1807594.2029572-.2835617l.002018-.7092247c-.0002939.1028023-.0682375.2053947-.2029573.2837715z" fill="#4c5671"/></g></g><g><g><path d="m25.1612015 42.7390671-1.0043564.5836677-1.1442833-.6606483 1.0043583-.5836716z" fill="#4c5671"/></g><g enable-background="new"><g><path d="m16.9208775 35.0469208-2.2709952 1.3197593-1.1470604-.6622543 2.2709961-1.3197594z" fill="#4c5671"/></g><g><path d="m18.4595432 35.9352684-1.0072021.5853233-1.1470566-.6622543 1.0072041-.5853195z" fill="#4c5671"/></g><g><path d="m19.9982128 36.8236198-1.0072021.5853234-1.1442814-.6606522 1.0072021-.5853195z" fill="#4c5671"/></g><g><path d="m15.9264174 37.4073601-1.0043574.5836715-2.6857262-1.5506057 1.0043583-.5836678z" fill="#4c5671"/></g><g><path d="m21.5368786 37.7119713-1.0043583.5836677-1.1471214-.6589965 1.0072021-.5853196z" fill="#4c5671"/></g><g><path d="m14.0877886 37.8130379-1.0043583.5836715-2.1135845-1.2202797 1.0043583-.5836715z" fill="#4c5671"/></g><g><path d="m17.4650879 38.2957153-1.0043583.5836678-1.1442823-.6606522 1.0043573-.5836677z" fill="#4c5671"/></g><g><path d="m23.0783272 38.6019249-1.0043583.5836716-1.1470604-.6622582 1.0043583-.5836677z" fill="#4c5671"/></g><g><path d="m15.6264582 38.7013893-1.0043574.5836716-1.1470565-.6622544 1.0043582-.5836677z" fill="#4c5671"/></g><g><path d="m19.0037537 39.184063-1.0043583.5836677-1.1442776-.6606483 1.0043583-.5836678z" fill="#4c5671"/></g><g><path d="m20.5452023 40.0740166-1.0043583.5836715-1.1470604-.6622581 1.0043564-.5836678z" fill="#4c5671"/></g><g><path d="m23.3505039 40.2262764-1.004507.5837555-1.1470566-.6622505 1.0045089-.5837555z" fill="#4c5671"/></g><g><path d="m22.0838661 40.962368-1.0043583.5836678-1.1470546-.6622544 1.0043582-.5836677z" fill="#4c5671"/></g><g><path d="m24.8891697 41.1146278-1.0045071.5837555-1.1442775-.6606483 1.004507-.5837593z" fill="#4c5671"/></g><g><path d="m26.4278393 42.0029793-1.0045071.5837555-1.1442814-.6606522 1.0045071-.5837555z" fill="#4c5671"/></g><g><path d="m29.2357712 42.156929-1.0043583.5836678-5.8297138-3.3657875 1.0043583-.5836678z" fill="#4c5671"/></g></g><g><path d="m16.4707775 40.6560669-.4553966.2646484-1.1442786-.6606483.4553967-.2646485z" fill="#4c5671"/></g><g><path d="m17.165123 39.5897408-1.0043564.5836677-1.1442785-.6606483 1.0043573-.5836716z" fill="#4c5671"/></g><g enable-background="new"><g><path d="m18.7037945 40.4780922-1.0043583.5836677-1.1442833-.6606521 1.0043583-.5836678z" fill="#4c5671"/></g><g><path d="m18.0122261 41.5460243-.4553986.2646446-1.1470603-.6622543.4553966-.2646484z" fill="#4c5671"/></g><g><path d="m20.2452374 41.368042-1.0043583.5836716-1.1470547-.6622544 1.0043564-.5836677z" fill="#4c5671"/></g><g><path d="m19.55089 42.4343719-.4553967.2646485-1.1470547-.6622543.4553967-.2646485z" fill="#4c5671"/></g></g><g><path d="m21.0895557 43.3227196-.4553966.2646484-1.1442776-.6606483.4553967-.2646485z" fill="#4c5671"/></g><g><path d="m22.6282253 44.211071-.4553966.2646485-1.1442814-.6606522.4553966-.2646484z" fill="#4c5671"/></g><g><path d="m24.8612423 44.0330963-1.0043564.5836678-1.1442833-.6606522 1.0043583-.5836677z" fill="#4c5671"/></g><g><path d="m24.1696701 45.1010246-.4553966.2646485-1.1470566-.6622544.4553966-.2646446z" fill="#4c5671"/></g><g><path d="m27.9692841 42.8929291-1.004509.5837593-1.1470547-.6622543 1.0045071-.5837555z" fill="#4c5671"/></g><g enable-background="new"><g><path d="m29.5079536 43.7812843-1.004507.5837555-1.1470604-.6622581 1.004507-.5837555z" fill="#4c5671"/></g><g><path d="m29.7799816 45.4057198-1.0043583.5836715-2.6857261-1.5506057 1.0043582-.5836678z" fill="#4c5671"/></g></g><g><path d="m26.4026871 44.9230499-1.0043583.5836678-1.1470566-.6622544 1.0043583-.5836677z" fill="#4c5671"/></g><g><path d="m25.7083397 45.9893761-.4553967.2646484-1.1470604-.6622543.4553967-.2646485z" fill="#4c5671"/></g><g><path d="m28.5134926 46.1417236-1.0043583.5836678-1.7191963-.9925766 1.0043583-.5836716z" fill="#4c5671"/></g><g><path d="m27.2470055 46.8777275-.4553967.2646446-1.1442776-.6606483.4553967-.2646485z" fill="#4c5671"/></g><g><path d="m14.9321117 39.7677193-.4553966.2646484-1.1442824-.6606522.4553967-.2646484z" fill="#4c5671"/></g><g><path d="m11.8547764 37.9910164-.4553967.2646484-1.1470613-.6622543.4553966-.2646484z" fill="#4c5671"/></g><g><path d="m13.3934412 38.8793678-.4553967.2646485-1.1470556-.6622544.4553967-.2646484z" fill="#4c5671"/></g><g><path d="m21.7839069 42.2563934-1.0043583.5836716-1.1470603-.6622581 1.0043582-.5836678z" fill="#4c5671"/></g><g><path d="m23.3225727 43.1447449-1.0043583.5836677-1.1442776-.6606483 1.0043583-.5836678z" fill="#4c5671"/></g><g><path d="m26.7026463 43.6290207-1.0043583.5836677-1.1470566-.6622505 1.0043583-.5836715z" fill="#4c5671"/></g><g><path d="m23.6225319 41.8507156-1.0043583.5836678-1.1442776-.6606484 1.0043583-.5836677z" fill="#4c5671"/></g><g><path d="m32.3131065 43.9336281-1.0043583.5836716-2.6857242-1.5506058 1.0043564-.5836678z" fill="#4c5671"/></g><g><path d="m31.0466194 44.669632-1.004509.5837555-1.1442775-.6606484 1.0045089-.5837555z" fill="#4c5671"/></g><g><path d="m21.8118401 39.3379288-1.004509.5837555-1.1470604-.6622544 1.0045071-.5837555z" fill="#4c5671"/></g><g><path d="m18.7317257 37.5596237-1.0045071.5837555-1.1442833-.6606521 1.0045071-.5837555z" fill="#4c5671"/></g></g></g><g><path d="m41.1983833 39.1464615c-.25 1.840332-1.3699951 3.4501953-3.0100098 4.3100586-5.5499878 2.8901367-13.2699604 2.7802734-13.2699604 2.7802734l-3.0900269-4.0800781c6.7600098.0097656 10.2399921-.9301758 12.0900288-2.3100586.6499634-.4902344.8699951-1.3598633.5199585-2.090332-.7999878-1.699707-2.2099609-5.1396484-2.0199585-8.1098633.3300171-5.1499023 2.4331436-6.3599358 4.1231461-6.1997795 1.4799805.1396484 2.8168564 1.520092 3.456871 2.8701897 1.5899659 3.3696288 1.6599732 9.4199218 1.1999512 12.8295898z" fill="#5faf5f"/><g><path d="m26.5794849 35.8846931-.0340271 12.4428978c0 .2777519-.1985168.3912888-.4423809.2495041l-17.1104383-9.8794365c-.2438641-.1417846-.4367046-.4765815-.4367046-.7543335l.0340261-12.4428997c0-.2780285.1985178-.3912888.4423819-.249506l17.1104393 9.8794403c.2438631.1359673.4367036.4763032.4367036.7543335z" fill="#9da9c1"/></g><g><path d="m27.1517162 35.5490189-.0340271 12.4431763c0 .1417809-.0510578.2381516-.1304646.2835655l-.5722313.3353958c.0794086-.045414.1304646-.1475983.1304646-.2835655l.0340271-12.4428978c0-.2780304-.1928406-.6183662-.4367046-.7543335l-17.1104383-9.8794404c-.1247883-.0739384-.2325449-.0794754-.3119173-.0340614l.5722303-.3298569c.0793724-.0509529.187129-.0398769.3119173.0282459l17.1104393 9.8794384c.2438621.1417847.4367046.4765816.4367046.7543336z" fill="#e3e7f0"/></g><g><path d="m17.0934448 35.0585175c-.8950005-.5167274-1.6212492-.1067657-1.6241646.9217606-.0029049 1.0246277.7186375 2.2743759 1.6136379 2.7911072.8917084.5148277 1.6179619.1009636 1.6208668-.9236641.0029164-1.0285264-.7186317-2.274376-1.6103401-2.7892037z" fill="#d3dbea"/></g></g></g></g></svg>