<svg id="Layer_1" enable-background="new 0 0 50 50" height="512" viewBox="0 0 50 50" width="512" xmlns="http://www.w3.org/2000/svg"><g><g><path d="m46.5783005 35.9977798-19.7799683 11.4101563-1.2000122-.0200195-2.7199707-1.5800782v-.5698242l20.7199707-11.9599609 2.710022 1.5800781.2600097.8696289z" fill="#e4e8f4"/><path d="m48.3683395 25.7477798-5.6600342-3.2700195c.0500488-.1098633.0900269-.2299805.0900269-.3500977v-.6098633c0 .0600586-.0200195.1201172-.0300293.1801758.0900269-.4301758-.1399536-.8798828-.7199707-1.2202148l-.0900269-.0498047c.0300293-.090332.0599976-.1801758.0599976-.2700195v-.6103516c.0100098-.3896484-.2399902-.7695313-.7599487-1.0595703l-.8099976-.4702148c-.5-.2900391-1.1600342-.4399414-1.8200073-.4399414-.4400024 0-.8699951.0698242-1.2600098.2001953l-.3599854-.2099609c-.8600464-.4902344-2.1700439-.5600586-3.1400146-.1904297l-4.1000366-2.3696299c-.5499878-.3203125-1.4599609-.3203125-2.0099487 0l-5.1000366 2.9697275.0200195-5.3198252 3.4599609-2.0102539.0100098-.909668-12.3899527-7.1503906-12.3000488 7.1503907v.909668l3.5599976 2.0600586-.0099487 5.3398447c-.0100098 1.3203125.8599854 2.6303711 2.5999756 3.6401367 1.6900024.9799805 3.8900146 1.4702148 6.0999756 1.4902344l-12.0700074 7.0200195c-.4299927.25-.5099487.6098633-.2599487.8999023-.1000366-.1000977-.1600342-.2099609-.1600342-.3300781v1.5102539c0 .2099609.1400146.4296875.4199829.5800781l18.6000366 10.75c.5499878.3095703 1.4500122.3095703 2 0l26.1300049-15.1904297c.2699585-.159668.4099731-.3701172.4099731-.5800781v-1.5097656c-.0000009-.209961-.1300058-.4199219-.4099741-.5800782zm-9.3300171-6.4399414c-.1099854-.0698242-.2000122-.1401367-.2700195-.2099609.3200073-.1801758.9400024-.1098633 1.4100342.1601563.1199951.0698242.2099609.1396484.2799683.2197266-.3200074.1699218-.9499512.1000976-1.419983-.169922z" fill="#e4e8f4"/><g><g><g><g enable-background="new"><g><path d="m48.7807884 26.3282127v1.5081196c0 .212801-.1388168.4256001-.4163933.5828266l-26.1302814 15.1842118c-.545948.3144569-1.4434566.3144569-1.9986668 0l-18.5983778-10.742981c-.2775768-.1572304-.4163934-.3700294-.4163934-.5828285v-1.5081196c0 .2127991.1388166.4255981.4256554.5828266l18.5983779 10.7425308c.5552101.3149071 1.4434566.3149071 1.9986668 0l26.1210194-15.1837597c.2775764-.1667156.4163932-.3704776.4163932-.5828266z" fill="#30596d"/></g><g><path d="m48.366188 25.7457294c.5553284.3206196.5524559.8424244.000618 1.1631165l-26.1242523 15.181757c-.5515194.320507-1.4466152.3205452-2.0019436-.0000725l-18.5973773-10.7372017c-.5553277-.3206196-.5581961-.839098-.0066767-1.1596069l26.1242509-15.1817541c.5518379-.320694 1.4526768-.3240576 2.0080032-.0034389z" fill="#416e84"/></g></g></g><g><g enable-background="new"><g><path d="m47.1669235 26.5837345-25.5154571 14.8279629-18.8257723-10.8690643 25.5154562-14.8279629z" fill="#fff"/></g></g></g><g><g enable-background="new"><g><path d="m40.6402664 19.2027798-.0017509.6162395c.0005074-.1777439-.1607018-.3870392-.4593811-.5594826-.4705925-.2716961-1.1060715-.3441277-1.4250221-.1587734-.1162415.0675507-.1720314.1605053-.1723251.2645798l.0017471-.6162319c.0002937-.1040802.0560837-.1970329.1723251-.2645855.3189507-.1853542.9544296-.1129227 1.4250221.1587734.2986794.1724434.4598885.3817387.4593849.5594807z" fill="#efac41"/></g><g><path d="m42.0198364 19.5456238-.0017509.6162395c-.0007057.2505703-.1103249.5008106-.328846.7251167l.0017433-.6162319c.218525-.2243099.3281441-.4745521.3288536-.7251243z" fill="#efac41"/></g><g><path d="m40.9712105 23.1716709-.0017472.6162377-8.6058273-4.9685765.0017471-.6162376z" fill="#f9bb4a"/></g><g><path d="m42.7948723 21.5156002v.6162548c-.0037842.3704166-.2457008.7369595-.7332916 1.0204468l-1.0923805.6350803.0037842-.6160698 1.0923805-.6350803c.4838065-.2834873.7295074-.6500301.7295074-1.0206318z" fill="#efac41"/></g><g><path d="m42.0529747 20.4797363c.9846306.5684776.9898682 1.4880352.0115471 2.056572l-1.0933113.6353626-8.6058273-4.9685764 1.0933113-.6353626c.9783211-.5685387 2.5658569-.5685062 3.5480728-.0014248l.3619919.2089977c.38657-.1295891.8215523-.1950607 1.2594376-.1951122.6614799.0014038 1.3189621.1477203 1.8233452.4389248l.8084526.4667625c.8398285.4848728.9834747 1.2177601.4309921 1.7848625zm-3.0134125-1.1731758c.4754219.2744846 1.1109009.3469162 1.4249115.1644344.3189507-.1853542.1918297-.5532112-.2835922-.8276958-.4705925-.2716961-1.1060715-.3441277-1.4250221-.1587734-.3140106.1824837-.1868897.5503387.2837028.8220348" fill="#fed57a"/></g></g></g><g><g><path d="m38.8299751 24.1494465-.732109.4254551-11.760767-6.790083.732109-.425455z" fill="#ed435c"/></g><g><path d="m40.820446 28.6684361-.3533287.2053318-16.6600265-9.6186696.3533306-.2053337z" fill="#bac1ce"/></g><g><path d="m28.315731 26.5075645-.3509178.2039319-8.5219803-4.920168.3509198-.2039318z" fill="#bac1ce"/></g><g><path d="m37.9093742 30.3601646-.3510437.2040062-16.6600246-9.6186714.3510456-.2040043z" fill="#bac1ce"/></g><g><path d="m39.364975 29.5142632-.3510437.2040061-16.6600266-9.6186714.3510456-.2040043z" fill="#bac1ce"/></g><g><path d="m42.2760468 27.8225346-.3533326.2053318-16.6600227-9.6186695.3533287-.2053338z" fill="#bac1ce"/></g></g><g><g><path d="m15.6376629 27.9537182.0016031.3066044-3.2129688-.0000172-.0077047-.8119621.5291528.0000248.0061026.5053577z" fill="#f25574"/></g><g><path d="m34.1719704 32.3692398-.4238129.2462921-10.7607994-6.2127514.423811-.2462921z" fill="#5b5e71"/></g><g><path d="m25.448719 29.98452-.4207458.2445106-4.3264427-2.4978733.4207458-.2445106z" fill="#bac1ce"/></g><g><path d="m29.3148232 35.191906-.4207459.2445106-10.7608013-6.2127514.4207458-.2445125z" fill="#5b5e71"/></g><g><path d="m28.1719952 35.8560448-.4207459.2445106-10.7608013-6.2127514.4207458-.2445106z" fill="#bac1ce"/></g><g><path d="m24.460743 38.0127907-.4238129.2462921-10.7608013-6.2127533.4238128-.2462921z" fill="#5b5e71"/></g><g><path d="m15.7374897 35.628067-.4207458.2445145-4.3264418-2.4978752.4207458-.2445107z" fill="#bac1ce"/></g><g enable-background="new"><g><path d="m8.8231354 28.9007492 3.4004774 1.9632664-3.3784027 1.9633121-3.4004774-1.9632664zm.0197277 3.49226 2.631115-1.5290375-2.6514854-1.5308361-2.6311154 1.5290375z" fill="#bac1ce"/></g><g><path d="m23.3146782 38.6788101-.4207459.2445107-10.7608022-6.2127533.4207468-.2445107z" fill="#bac1ce"/></g></g><g><path d="m10.5638399 30.9023018.0016022.3066044-3.2129679-.0000172-.0077052-.8119621.5291538.0000248.0061021.5053577z" fill="#4562ef"/></g><g><path d="m13.793396 26.0123482 3.4004784 1.9632664-3.3784037 1.9633141-3.4004774-1.9632664zm.0164843 3.4941463 2.634181-1.5308189-2.6514854-1.5308361-2.634182 1.5308189z" fill="#bac1ce"/></g><g><path d="m33.0291443 33.0333786-.4238129.2462921-10.7608013-6.2127514.423811-.2462921z" fill="#bac1ce"/></g><g><path d="m18.7636471 23.1239548 3.4004784 1.9632664-3.3816376 1.9651928-3.4004774-1.9632664zm.0164928 3.4941406 2.6341743-1.5308151-2.6514854-1.5308361-2.6341743 1.5308151z" fill="#bac1ce"/></g><g><path d="m20.5946369 32.8054047-.4238109.2462921-4.3264428-2.4978733.4238129-.2462921z" fill="#bac1ce"/></g><g><path d="m20.70825 25.0070152.001772.3065052-3.2129689-.0000171-.0077037-.8119622.5291538.0000267.0059318.5054551z" fill="#4562ef"/></g></g></g><g><g><g><path d="m22.8789024 45.2408676.0015965.5631447 2.7169418 1.5789146-.0015964-.5631485z" fill="#e5a03c"/></g><g><path d="m22.8789024 45.2408676 2.7169419 1.5789108 20.7173958-11.961193-2.7169419-1.5789147z" fill="#f9bb4a"/></g><g enable-background="new"><g><path d="m25.5958672 46.8197823.0015964.5631446 1.2037277.0301323-.0015983-.2692985z" fill="#efac41"/></g><g><path d="m26.799593 47.1437607.0015983.2692985 19.7734776-11.4162254-.0015984-.2692947z" fill="#f9bb4a"/></g><g><path d="m46.3132591 34.8585892-20.7173919 11.9611931 1.2037258.3239784 19.7734775-11.4162216z" fill="#fed57a"/></g></g></g><g><g fill="#525566"><path d="m24.3561535 44.3858681.9856472.5818596-.2660847.1573753-.995512-.5813751z"/><path d="m26.6034546 43.0849915 1.7248802 1.0053787-.2760105.157856-1.7150135-1.0053788z"/><path d="m27.3623619 42.6513634.9856453.5813789-.2759495.157856-.9856453-.5813751z"/><path d="m32.1033745 41.0646095.7293663.4239998-.2760086.1573792-.7293682-.4240036-.995512-.57127.0098667-.0101052.2661438-.1578559z"/><path d="m33.3649673 39.1818733.9856453.5818596-.2759475.1573753-.9955101-.5717506.0098648-.0096283.2660827-.1477508z"/><path d="m34.1042023 38.7578735 1.7248802.9957505-.2759514.1578559-1.7150726-.9957504z"/><path d="m25.1052551 43.9527245 1.7150135 1.004898-.2759494.157856-1.7150136-1.0053787z"/><path d="m23.6070538 44.8199768.995512.5717506-.2759495.1674843-.995512-.5818596z"/><path d="m25.8543549 43.5186157.995512.5818596-.2760105.1573753-.9955121-.5813751z"/><path d="m28.1114616 42.2177391 1.7150135.9957504-.2759494.1674843-1.7150135-1.0053787z"/><path d="m28.8605614 41.784111.9856453.581379-.2661438.1578559-.995451-.5813751z"/><path d="m29.6096611 41.3504868 1.7150135 1.0053749-.2759495.1573791-1.7150726-.9952736z"/><path d="m30.3587627 40.9168587.9955101.5813789-.2760086.157856-.995512-.5818596z"/><path d="m31.8667679 40.0491257.9758415.5818596-.2661438.1573753-.9856472-.57127.2661438-.1578598z"/><path d="m32.6158676 39.6154976 1.7052078 1.0053787-.2760086.1578598-1.7150154-.9957542.0098686-.0096245.2660828-.1477509z"/><path d="m40.1166153 35.2888603 1.7150726.9952736-.2760086.157856-1.7150116-.9957504z"/><path d="m37.8595085 36.5897408.9955139.5717506-.2760124.1674843-.9954491-.5818596z"/><path d="m36.3613091 37.4569931.9856452.5818596-.2660827.1477508-.9955101-.5717544z"/><path d="m35.6122704 37.8906212 1.7150116.9957504-.2760087.1573753-1.7051467-.9952697z"/><path d="m37.1104088 37.0233688 1.7150154.9952698-.2759514.157856-1.7150116-.9952698z"/><path d="m38.6086082 36.1561165 1.7248803.9952698-.2760086.1578559-1.7150155-.9952697z"/><path d="m41.6148148 34.4211273 1.7150154.9957543-.2759514.1674804-1.7150116-1.0053749z"/><path d="m42.3639183 33.9875031.9955101.5813751-.2760086.1578598-.9955139-.581379z"/><path d="m44.8378983 34.5496292-.2760125.1573753-1.7150116-.9952697.2661438-.1578598z"/><path d="m34.8631706 38.3242455.9856453.5717506-.2760124.1578598-.9856453-.5717545z"/><path d="m39.3675766 35.7224884.9856453.57127-.2760086.1679649-.9856453-.5818596z"/><path d="m40.865715 34.8547554.9955139.5717506-.2759513.157856-.9955101-.5717506z"/></g></g></g><g><g><g><g enable-background="new"><g><path d="m22.6819725 10.2421875-.0253849 7.8555183c-.0036831 1.2994118-.8578892 2.5968628-2.5643387 3.5885429-3.4383812 1.9981689-9.0235815 1.9981747-12.481019.0020218-1.7416024-1.0055161-2.611423-2.3242626-2.6076899-3.6409931l.0253787-7.8555155c-.003727 1.3167295.8660936 2.6354761 2.6076956 3.6409912 3.457438 1.9961529 9.0426388 1.9961472 12.48102-.0020208 1.706449-.9916801 2.5606551-2.2891321 2.5643382-3.5885448z" fill="#363a44"/></g><g><path d="m20.0769291 6.6032319c3.4574375 1.9961524 3.4756832 5.2313085.0407047 7.2275004-3.4383812 1.998168-9.0235815 1.9981737-12.48102.0020208-3.4609508-1.9981813-3.4791898-5.2333345-.0408091-7.2315025 3.434978-1.9961915 9.0201735-1.9962 12.4811244.0019813z" fill="#474b59"/></g></g></g><g><g enable-background="new"><g><path d="m26.1459122 9.7365189-.0025807.910366-12.3031559 7.1498127.0025807-.910366z" fill="#3f434f"/></g><g><path d="m13.8427563 16.8863316-.0025807.910366-12.3836313-7.1496935.0025807-.9103651z" fill="#474b59"/></g><g><path d="m26.1459122 9.7365189-12.3031559 7.1498127-12.3836313-7.1496926 12.3031555-7.1498132z" fill="#5b5e71"/></g></g></g></g><g><g><path d="m20.4902172 19.6033268c-.1517849 0-.2746067-.1229553-.2746067-.2746048v-6.1515741l-6.687623-3.8609772c-.1314039-.0758924-.1764565-.2437668-.100296-.3751698.0756245-.1315374.2440348-.1759195.3749018-.100564l6.9622288 4.0197344v6.4685507c-.0000001.1516495-.1228219.2746048-.2746049.2746048z" fill="#ed435c"/></g><g><path d="m20.6311455 15.5425577c.2994442 1.1873598.1858768 2.9491873.096384 3.486146-.0998287.6161156-.640192 1.0463562-1.2459717 1.0290451.223711.2994881.5816841.4922543.9843826.4922543.6814919 0 1.2322121-.5507393 1.2322121-1.2322311 0-.6263696-.464672-3.1866609-1.067007-3.7752143z" fill="#e63044"/><path d="m20.7275295 19.0287037c.0894928-.5369587.2030602-2.2987862-.096384-3.486146-.0550613-.058486-.1101437-.0860481-.165205-.0860481-.6814938 0-1.2322121 3.1797686-1.2322121 3.8612623 0 .2788143.0929394.533596.2478294.7399769.6057797.0173111 1.146143-.4129295 1.2459717-1.0290451z" fill="#ed435c"/></g></g></g></g></g></g></svg>