<svg id="Layer_1" enable-background="new 0 0 67 67" height="512" viewBox="0 0 67 67" width="512" xmlns="http://www.w3.org/2000/svg"><g><g><g><g><g><g><g><g enable-background="new"><g><path d="m30.8331184 52.9642944.0040207 1.4182625 11.4935837-.8420029-.0040207-1.4182624z" fill="#a2a4a5"/></g><g><path d="m30.9816513 55.0637932-.0040207-1.4182625c.0020733.731926-.4812851 1.4649162-1.4488049 2.0235138-1.2693405.7328568-3.0552959.9821091-4.6722279.7472725l.0040226 1.4182625c1.61693.2348366 3.4028854-.0144196 4.672226-.7472725.9675198-.5585976 1.4508801-1.2915879 1.4488049-2.0235138z" fill="#b6b9ba"/></g><g><path d="m23.2198238 64.0817413.0040207 1.4182587 1.6367741-7.6654205-.0040207-1.4182625z" fill="#a2a4a5"/></g><g><path d="m19.1984406 63.782753.0040206 1.4182587 4.0213833.2989883-.0040207-1.4182587z" fill="#b6b9ba"/></g><g><path d="m22.610424 51.64851c-.9655704.5574722-1.4487782 1.2888527-1.4490585 2.0194931-.0005054.7332306-.1025715 1.4653549-.2680683 2.192543l-1.6948566 7.9222069 4.0213833.2989883 1.6367741-7.6654243c1.6169319.2348366 3.4028873-.0144157 4.6722279-.7472725 1.2701969-.7333488 1.7059212-1.7672729 1.3042927-2.7047501l11.4935837-.8420029-.5030251-2.3303108-11.9366531.8748055c-1.2574425.093605-2.5231991.1507072-3.7905369.1489754-1.2594568-.0016137-2.5217725.2760124-3.4860632.8327484z" fill="#cfd2d3"/></g></g></g><g><g><g><g enable-background="new"><g><path d="m29.5945206 42.698143-.0230808 10.8918991c-.0014668.5180626-.341753 1.0352898-1.0218487 1.4305191-1.3708858.796669-3.599205.795948-4.9777889.0000229-.6935577-.4004288-1.0400257-.9258995-1.038538-1.450695l.0230789-10.8918953c-.0014858.5247917.3449821 1.0502663 1.0385399 1.4506912 1.378582.7959251 3.6069012.7966499 4.9777889-.0000229.6800938-.3952293 1.02038-.9124565 1.0218487-1.4305191z" fill="#6d797a"/></g><g><path d="m28.5726795 44.1286621c-.6812763.3959084-1.5743313.5944595-2.4696026.5967789v10.891262c.8874969-.0056534 1.7710953-.2036324 2.4465275-.5961418.6800919-.3952293 1.0203667-.9124603 1.0218372-1.4305229l.0230846-10.8919029c-.0014705.518074-.3417548 1.0352936-1.0218467 1.4305267z" fill="#7e8a8c"/></g><g><path d="m28.5551796 41.2460747c1.378582.7959251 1.3871155 2.0866508.0174923 2.8825874-1.3708878.7966728-3.5992069.795948-4.9777889.0000229-1.3785839-.7959251-1.3858356-2.0859108-.0149498-2.8825836 1.3696232-.7959366 3.5966625-.7959519 4.9752464-.0000267z" fill="#2d2c2b"/></g></g></g></g></g><g><g enable-background="new"><g><path d="m8.354805 61.863678-4.3709488-2.5401115c-.2182252-.1268234-.3533957-.3969002-.3544836-.7806702l4.3709459 2.5401154c.0010882.3837699.1362582.6538467.3544865.7806663z" fill="#b2b0af"/></g><g><path d="m8.0003185 61.0830116-4.3709457-2.5401153-.0108966-3.8436356 4.3709456 2.5401192z" fill="#c4c2c0"/></g><g><path d="m47.2082596 34.5963707.0108948 3.8436356c.0021858.7715034-.5400505 1.7106972-1.2114601 2.0983353l-36.7897225 21.2405585c-.6713982.3876305-1.2154655.0756149-1.2176533-.6958885l-.0108967-3.8436317z" fill="#e9e8e6"/></g></g><g enable-background="new"><g><path d="m42.4072227 1.5819966 4.370945 2.5401196c-.2209778-.1284225-.5270271-.1102753-.8648911.0847888l-4.370945-2.5401158c.337864-.1950646.6439134-.2132117.8648911-.0847926z" fill="#434240"/></g><g><path d="m7.9935832 57.2356262-4.3734429-2.5390053-.0797548-29.6964759 4.3734429 2.5389232z" fill="#494948"/></g><g><path d="m7.9935832 57.2356262-4.3734429-2.5390053-.0314839-11.7229271 4.3734432 2.5389214z" fill="#383736"/></g><g><path d="m9.1235571 25.4474621-4.3709455-2.5401173 36.7897201-21.2405559 4.370945 2.540116z" fill="#494948"/></g><g><path d="m9.1235571 25.4474621-4.3709455-2.5401173 18.3353935-10.5859432 4.3709449 2.5401154z" fill="#383736"/></g><g><path d="m7.9138231 27.5447998-4.3709459-2.5401154c-.002187-.7715015.5383358-1.7097073 1.2097344-2.0973396l4.3709455 2.5401173c-.6713982.3876304-1.2119212 1.3258362-1.209734 2.0973377z" fill="#494948"/></g><g><path d="m45.9132767 4.2069049c.6714134-.3876386 1.2171936-.0766129 1.2193832.6948886l.0755997 29.6945763-39.2188378 22.6430101-.0755987-29.6945801c-.0021873-.7715015.5383358-1.7097073 1.209734-2.0973377z" fill="#2d2c2b"/><path d="m46.126976 33.9736176-37.0647163 21.4013252-.0700922-27.8325768c0-.3829021.3370495-.9680157.671401-1.1621475l36.3906002-21.0103593z" fill="#fff"/></g></g></g><g><path d="m28.6252975 47.6735878c0 .9689865-.6793919 2.1607399-1.525877 2.6508102-.8576355.4900665-1.5370255.0890503-1.5481739-.8799324 0-.9689865.67939-2.1495934 1.5370255-2.6396599.8464851-.5012168 1.5258751-.1002006 1.5370254.8687821z" fill="#d6d4d2"/></g></g></g></g><g><g><g><path d="m36.4645767 15.1605053c.0566635-.0327158.109623-.0371113.1512985-.0177708.0379066.0259962.0607376.0736704.0609245.1386662l.003418 1.206646c.00037.1302242-.0937462.2933006-.2108574.3609142-.1133156.065424-.2080612.0113869-.2084312-.1188374l-.0027428-.9678602-.8385811.4841528c-.1171074.0676136-.2118416.0135689-.2122078-.1166553-.0003815-.1344643.0937347-.2975416.2108421-.3651543z" fill="#c4c2c0"/></g><g><path d="m36.4753265 18.958477c.1171188-.0676174.2118416-.0180531.2122231.1166439l.0073471 2.5913258c.0003662.1302166-.0937538.2930584-.2108727.3606758-.1133041.0654182-.2080574.0116215-.2084236-.1185951l-.0073471-2.5913258c-.0003814-.1346969.0937653-.2933063.2070732-.3587246z" fill="#c4c2c0"/></g><g><path d="m36.4900055 24.1366444c.1171188-.0676193.211853-.0135727.2122231.1166439l.0073471 2.5913239c.0003815.1344604-.0937386.2975407-.2108574.36516-.1133041.0654163-.2080574.0113811-.2084389-.1230793l-.0073471-2.5913239c-.00037-.1302166.0937691-.2933083.2070732-.3587246z" fill="#c4c2c0"/></g><g><path d="m36.5046883 29.3150501c.1171188-.0676193.211853-.013813.2122345.1208858l.0073318 2.5868416c.0003815.1347008-.0937347.2977791-.2108574.3653984-.1133041.0654182-.2080574.0113831-.2084389-.1233177l-.0073318-2.5868416c-.0003815-.1346988.0937538-.2975501.2070618-.3629665z" fill="#c4c2c0"/></g><g><path d="m36.5193939 34.497448c.1171112-.0676117.2118301-.017807.2122116.1166573l.0034218 1.206646c.0001869.0652313-.0223007.1390686-.0599518.2042046-.0414162.0717964-.0942383.1239929-.1509056.1567116l-1.0463219.6085739c-.1171074.0676117-.2118416.0135689-.2122231-.1211319-.0003815-.1344643.0937347-.2975388.2108459-.3651543l.8385773-.4841537-.0027313-.9636192c-.0003814-.1344645.0937615-.2933085.2070771-.3587343z" fill="#c4c2c0"/></g><g><path d="m33.5915298 37.3922081c.1133194-.0654259.2080727-.0113907.2084541.1230888.0003815.1347008-.0937538.2977715-.207077.3631973l-1.8849182 1.0882568c-.1171188.0676193-.211853.0135918-.2122345-.1211052-.0003815-.1344795.0937366-.2975616.2108574-.365181z" fill="#c4c2c0"/></g><g><path d="m29.8216763 39.5687332c.1133232-.0654259.2080746-.0113907.208456.1230888.0003815.1347008-.0937538.2977715-.207077.3631973l-1.8849354 1.0882683c-.1171017.0676079-.2118359.0135803-.2122173-.1211166-.0003815-.1344795.0937366-.2975616.2108383-.3651695z" fill="#c4c2c0"/></g><g><path d="m26.0480461 41.7474403c.1171017-.0676079.2118359-.0135612.2122173.1209183.0003815.134697-.0937366.29776-.2108402.3653679l-1.8849335 1.0882683c-.1133232.0654259-.2080574.0113983-.2084389-.1232986-.0003815-.1344795.0937366-.2975616.2070599-.3629875z" fill="#c4c2c0"/></g><g><path d="m22.2781754 43.9239769c.1171036-.0676079.2118549-.0135727.2122364.1209068.0003815.134697-.0937557.2977676-.2108574.3653793l-1.8849163 1.0882568c-.1133232.0654259-.2080574.0113983-.2084408-.1232986-.0003796-.1344795.0937386-.2975616.2070618-.3629875z" fill="#c4c2c0"/></g><g><path d="m17.4585838 45.5022125c.1133308-.0654297.2080631-.0156326.2084446.1188316l.0027332.963623.8385792-.4841576c.1170959-.0676041.2118416-.0135689.2122231.1208954.0003815.1347008-.0937614.2933121-.2108574.3609161l-1.0463486.6041107c-.0566521.0327072-.1096001.0415764-.1512871.0177612-.0378952-.0215225-.0607376-.0691872-.0609226-.1344185l-.0034218-1.206646c-.0003814-.134464.0937615-.293308.2108574-.3609159z" fill="#c4c2c0"/></g><g><path d="m17.443882 40.3198128c.1133404-.0654373.2080727-.011631.208456.1230659l.0073338 2.5868416c.0003815.1347008-.0937386.2977829-.2070789.3632164-.1171017.0676117-.2118359.0135651-.2122173-.1211357l-.0073338-2.5868416c-.0003815-.1346969.0937366-.2975387.2108402-.3651466z" fill="#c4c2c0"/></g><g><path d="m18.4501114 25.561161c.1170959-.067606.2118416-.0135689.2122231.1208954.0003681.1302261-.0937614.2933102-.2108574.3609161l-.8385792.4841537.0027428.9678593c.00037.1302261-.0937595.2933102-.2070904.3587399-.1170959.067606-.2118416.0135689-.2122116-.1166553l-.0034199-1.206646c-.000185-.0649948.0223141-.1388397.0599518-.2084522.0414276-.0673199.0942402-.1239929.1508923-.156702z" fill="#c4c2c0"/></g><g><path d="m33.5332985 16.8528671c.1133232-.0654259.2080765-.0113907.2084579.1230698.0003662.1302357-.0937691.2933064-.2070923.3587341l-1.8849163 1.0882568c-.1171188.0676193-.2118549.0135937-.2122231-.1166439-.0003815-.1344585.0937366-.2975407.2108574-.36516z" fill="#c4c2c0"/></g><g><path d="m29.7634468 19.0293922c.1133232-.0654278.2080746-.0113907.208456.1230679.00037.1302376-.0937672.2933083-.2070904.358736l-1.8849335 1.0882664c-.1171017.0676098-.2118378.0135841-.2122059-.1166534-.0003815-.1344585.0937366-.2975407.2108402-.3651485z" fill="#c4c2c0"/></g><g><path d="m35.2073975 16.1297607c.0003662.1302242.0951004.184269.2122078.1166553l.8385811-.4841528.0027428.9678602c.00037.1302242.0951157.1842613.2084312.1188374l.0059814 2.1095104c-.1133156.065424-.2074585.2240334-.207077.3587341l.0073471 2.59132c.0003662.1302261.0951118.1840267.2084312.1186028l.0059814 2.1095104c-.1133194.065424-.2074509.228508-.2070808.3587341l.0073471 2.59132c.0003815.1344643.0951271.1885014.2084427.1230774l.00597 2.1052723c-.1133194.065424-.2074471.2282715-.2070656.3629723l.0073318 2.5868473c.0003815.134697.0951271.188736.2084465.1233101l.0059776 2.1092758c-.1133156.0654259-.2074585.2242699-.207077.3587341l.0027313.9636192-.8385773.4841537c-.1171112.0676155-.2112274.23069-.2108459.3651543l-1.4656372.8461876c-.0003815-.1344643-.0951271-.1885033-.2084427-.1230774l-1.8849277 1.0882645c-.1171093.0676117-.2112389.2306938-.2108593.3651581l-1.4656239.84618c-.0003815-.1344643-.0951271-.1884995-.208456-.1230698l-1.8849277 1.0882645c-.1170959.0676041-.2112255.23069-.210844.3651543l-1.4656372.8461838c-.0003815-.1344643-.0951138-.1885071-.2122231-.1208954l-1.8849258 1.0882645c-.1133194.0654221-.207449.228508-.2070675.3629723l-1.4656372.8461838c-.0003815-.1344643-.0951271-.1884995-.2122231-.1208954l-1.8849258 1.0882645c-.1133175.0654221-.2074471.228508-.2070675.3629723l-1.4656353.8461838c-.0003815-.1344643-.0951271-.1884995-.2122231-.1208954l-.8385792.4841576-.0027332-.963623c-.0003815-.1344643-.0951138-.1842613-.2084446-.1188316l-.0059795-2.109272c.1133308-.0654335.2074604-.2285156.2070789-.3632164l-.0073338-2.5868454c-.0003834-.1347008-.0951271-.1885033-.2084579-.1230698l-.0059681-2.1052742c.1133308-.0654297.2074604-.2285156.2070789-.3629799l-.0073471-2.59132c-.0003681-.1302261-.0951138-.1842613-.2084446-.1188316l-.0059795-2.1095085c.1133289-.0654335.2074604-.2282791.2070904-.3585052l-.0073452-2.5913219c-.0003815-.1346989-.0951157-.1842613-.2084465-.1188316l-.0059795-2.1095104c.1133308-.0654297.2074604-.2285137.2070904-.3587399l-.0027428-.9678593.8385792-.4841537c.1170959-.067606.2112255-.23069.2108574-.3609161l1.4656372-.8461857c.0003681.1302261.0951138.1842613.2084312.1188374l1.8849258-1.0882626c.1170979-.067606.2112274-.23069.2108574-.3609142l1.4656372-.8461857c.00037.1302242.0951157.1842613.2084332.1188374l1.8849258-1.0882626c.1171093-.0676136.2112274-.23069.2108574-.3609161l1.4656372-.8461857c.0003681.1302261.0951138.1842632.2122116.1166573l1.8849258-1.0882626c.1133308-.0654316.2074604-.2285156.2070904-.3587418l1.4656258-.8461781c.0003681.1302261.0951138.1842613.2122231.1166496l1.8849258-1.0882626c.1133194-.065424.2074471-.228508.2070808-.3587341z" fill="#e9e8e6"/></g><g><path d="m17.4145203 29.9632397c.1133404-.0654373.2080631-.015873.2084446.1188259l.0073452 2.5913239c.00037.1302147-.09375.2930565-.2070904.3584938-.1171017.0676117-.2118359.0138016-.2122059-.1164131l-.0073452-2.5913239c-.0003815-.1346989.09375-.2932988.2108517-.3609066z" fill="#c4c2c0"/></g><g><path d="m17.4292011 35.141407c.1133404-.0654373.2080746-.0113907.2084427.118824l.0073471 2.5913239c.0003815.1344604-.0937386.2975426-.2070789.3629799-.1171017.0676079-.2118359.0135612-.2122173-.1208992l-.0073471-2.5913239c-.0003682-.1302147.0937519-.2932968.2108535-.3609047z" fill="#c4c2c0"/></g><g><path d="m25.9898167 21.2080994c.1171017-.0676098.2118359-.0135632.2122173.1208973.00037.1302357-.09375.2932968-.2108517.3609066l-1.8849354 1.0882664c-.1133213.0654278-.2080574.0114021-.2084255-.1188354-.0003815-.1344585.0937366-.2975407.2070599-.3629665z" fill="#c4c2c0"/></g><g><path d="m22.2199478 23.384634c.1171017-.0676079.211853-.0135727.2122345.1208878.00037.1302357-.0937672.2933064-.2108688.3609161l-1.8849182 1.0882568c-.1133232.0654278-.2080574.0114002-.2084255-.1188354-.0003815-.1344585.0937366-.2975407.2070599-.3629684z" fill="#c4c2c0"/></g></g><g><g><path d="m37.9261971 14.8976641c.0059204 1.2185221-.851963 2.7097502-1.9169044 3.3190107-1.0649414.6153278-1.9287491.1181545-1.9287491-1.1003666-.0059204-1.2248764.851963-2.7097502 1.9169044-3.325078 1.0649414-.6153269 1.9287491-.1184425 1.9287491 1.1064339z" fill="#f25a5a"/></g><path d="m37.2842751 15.2643366c0 .1360655-.0946465.2900419-.2070618.3611078l-.8638039.4968834.0059204.9940567c0 .1360664-.0946465.289753-.2129784.3608189-.1183357.0649986-.2130203.017622-.2130203-.1184425v-.9937687l-.8637695.4968834c-.1183319.0710659-.2070923.017622-.2070923-.1184425s.0887604-.2958202.2070923-.3608189l.8578835-.4968834v-.9879904c0-.1360655.0946465-.2958193.2129822-.3668852.1124115-.0649996.207058-.017911.207058.1184425l.0059242.9879904.8578835-.4971724c.1183356-.0649995.2129821-.0118446.2129821.1242209z" fill="#fff"/></g><g><g enable-background="new"><g><path d="m32.7799072 24.1513691c.4830933-.2789135 1.028698-.4904861 1.6523933-.6157131l.0299721 10.571003-14.6878548 8.4800377-.0131588-4.6414604c.035614-.1361656.7123089-2.7233353 2.7396984-3.8938484.2785263-.1608086.5818672-.2923927.9115906-.3834724 1.5613651-.431469 2.6179504-.4947701 3.4728165-.988327.6397686-.3693695 1.1664639-.9793491 1.7077427-2.1652069 1.0418205-2.2823526 1.9273396-5.0582525 4.1868-6.3630125z" fill="#6dcb60"/></g><g><path d="m24.8061504 28.0086937c.8302994-.4793739 1.4717808-.0852604 1.4744053.8402367.0027046.9539642-.634531 2.0578308-1.4648304 2.5372047-.8053856.4649887-1.4675503.1113319-1.4702549-.8426342-.0026226-.9254951.6552944-2.0698185 1.46068-2.5348072z" fill="#efc348"/></g></g></g></g></g><g><g><g><g enable-background="new"><g><path d="m44.4924355 51.2747307-1.0792923-.6272164-.0648308-22.8668727 1.0792923.6272144z" fill="#c4c2c0"/></g><g><path d="m44.4276047 28.407856-1.0792923-.6272144 16.9468231-9.7842522 1.0792923.6272163z" fill="#e9e8e6"/></g><g><path d="m44.4276047 28.407856-1.0792923-.6272144 12.1917343-7.0389023 1.0792923.6272163z" fill="#c4c2c0"/></g><g><path d="m44.4276047 28.407856-1.0792923-.6272144 7.4366493-4.2935505 1.0792923.6272163z" fill="#e9e8e6"/></g><g><path d="m61.3744278 18.6236057.064827 22.8668728-16.9468193 9.7842522-.0648308-22.8668747z" fill="#d6d4d2"/></g></g></g><g><path d="m60.371151 27.7522068.0443611 13.7702808-15.4021912 8.8924561-.0443573-13.7702789z" fill="#fff"/></g><g><g><path d="m51.594883 36.4864273c.4415245-.2549133.8021355-.0527382.8035927.4611588.0014381.5073662-.3568497 1.1246834-.7983742 1.3795967-.4443436.256546-.8049545.0542793-.8063927-.4530869-.0014572-.5138931.3568306-1.1311264.8011742-1.3876686z" fill="#ffd651"/></g><g><path d="m49.1054382 39.3472061 2.5082016 3.137413.9338875 1.1682396-6.8517761 3.9564896z" fill="#81d672"/></g><g><path d="m55.1651764 33.8777771 4.5235481 5.6495438-7.1411972 4.1255378-.9338875-1.1682396z" fill="#f25a5a"/></g></g></g><g><g><path d="m47.2623253 29.734951c.6502762-.3754368 1.1784019-.0743084 1.1805229.6727676.0021019.7421131-.5225945 1.6510887-1.1728706 2.0265274-.6458511.3728828-1.1739807.0717545-1.1760826-.6703587-.0021172-.7470778.5225792-1.6560534 1.1684303-2.0289363z" fill="#c4c2c0"/></g><g><path d="m47.2598763 28.8759117c1.0616837-.6129627 1.9271011-.1195717 1.9305573 1.1001816.0034599 1.2200241-.8563347 2.7091942-1.9180183 3.322155-1.0616684.612957-1.9270859.1198387-1.9305458-1.1001854-.0034563-1.2197533.8563384-2.7091961 1.9180068-3.3221512zm.0100898 3.5583344c.6502762-.3754387 1.174984-1.2844276 1.1728783-2.0265331-.0021172-.7470722-.5302544-1.0482006-1.1805305-.6727638-.6458397.3728752-1.1705513 1.2818661-1.1684303 2.0289383.0021018.7421054.5302428 1.0432338 1.1760825.6703586" fill="#a2a4a5"/></g><g><path d="m54.8345757 28.1278687c.1327095-.0766201.24366-.0133362.2441063.1441326.0004311.152504-.1097984.3434849-.2425079.420105l-3.8441429 2.2194176c-.1371346.079174-.24366.0133362-.244091-.1391678-.0004501-.1574688.1053581-.3458958.2424927-.4250698z" fill="#c4c2c0"/></g><g><path d="m59.2534142 23.8811665c.1327095-.0766182.24366-.0133362.2441063.1441326.0004349.152504-.1097946.3434849-.2425041.420105l-8.2677841 4.773407c-.1371346.079174-.24366.0133362-.244091-.1391678-.0004463-.1574669.1053581-.3458958.2424927-.4250698z" fill="#c4c2c0"/></g><g><path d="m59.2486153 22.1884556c.1327095-.0766201.24366-.0133362.2441101.1444073.0004311.152504-.1097984.3432102-.2425079.4198303l-8.2677841 4.7734051c-.1371346.079174-.24366.0136127-.244091-.1388912-.0004463-.1577435.1053581-.3461723.2424927-.4253464z" fill="#c4c2c0"/></g></g></g><g><g><g enable-background="new"><g><path d="m44.3302231 19.2451305-1.0713692-.6226139-.0163803-5.7768783 1.071373.6226129z" fill="#00649b"/></g><g><path d="m44.3138466 13.4682512-1.071373-.6226129 19.1293907-11.0443594 1.071373.6226134z" fill="#3f9ae0"/></g><g><path d="m44.3138466 13.4682512-1.071373-.6226129 15.3161621-8.8427906 1.071373.6226134z" fill="#006cb5"/></g><g><path d="m44.3138466 13.4682512-1.071373-.6226129 11.5029335-6.6412215 1.071373.6226129z" fill="#3f9ae0"/></g><g><path d="m44.3138466 13.4682512-1.071373-.6226129 7.5827293-4.3778897 1.0713692.622613z" fill="#006cb5"/></g><g><path d="m44.3138466 13.4682512-1.071373-.6226129 3.8764801-2.2380839 1.0713692.622613z" fill="#3f9ae0"/></g><g><path d="m63.4432373 2.4238923.0163765 5.7768781-19.1293907 11.0443601-.0163765-5.7768793z" fill="#0074d1"/></g></g></g></g><g><g><path d="m45.854126 16.840435-.2779007-.1614933c-.1767921-.1007404-.2675247-.3381042-.268589-.7141733l.2778969.1614962c.0010642.3760681.0917968.6134319.2685928.7141704z" fill="#b2b0af"/></g><g><g><path d="m46.2516518 16.2645073-.2779007-.1614952c.0828705.0481567.2005959.027792.3535309-.0605049.1618347-.0934353.2839584-.2177553.3699532-.3791838.0859985-.1614008.1250648-.3577995.1243858-.5974979l.2778969.1614962c.000679.2396984-.0383873.4360971-.1243858.597497-.0859947.1614294-.2081184.2857485-.3699532.3791838-.1529351.0882987-.2706605.1086615-.3535271.0605048z" fill="#b2b0af"/></g><g><path d="m47.0995178 15.2273216-.2778969-.1614961-.0040168-1.4174223.2778968.1614961z" fill="#b2b0af"/></g><g><path d="m47.0955009 13.8098993-.2778968-.1614961.5142822-.2969218.2778969.1614962z" fill="#b2b0af"/></g><g><path d="m45.5814438 14.6840401-.2778969-.1614962.5178795-.2989979.2778969.1614952z" fill="#b2b0af"/></g><g><path d="m45.5855331 16.1262646-.2778968-.1614962-.0040894-1.4422245.2778969.1614962z" fill="#b2b0af"/></g><g><path d="m47.6097832 13.5129776.0040894 1.4422245c.0010643.3760681-.0880241.7172527-.2672729 1.0235538-.1756516.304224-.4234924.5508137-.743576.7356129-.3200722.1847935-.568512.2247334-.7488976.1260662-.176796-.1007385-.2675285-.3381023-.2685928-.7141705l-.0040894-1.4422245.5178795-.2989988.0040169 1.4174232c.0013123.4628325.1673775.5946398.5018387.4015379.1618347-.0934353.2839584-.2177544.3699532-.3791838.0859985-.1613998.1250648-.3577986.1243858-.597497l-.0040169-1.4174223z" fill="#fff"/></g><g><path d="m48.1277428 15.7885418-.2778969-.1614962-.0072861-2.5704012.2778969.1614962z" fill="#b2b0af"/></g><g><path d="m48.1204567 13.2181406-.2778969-.1614962.5178681-.2989912.2778968.1614962z" fill="#b2b0af"/></g><g><path d="m48.6383247 12.9191494.0072861 2.5704012-.517868.2989912-.0072861-2.5704012z" fill="#fff"/></g><g><path d="m51.0681496 13.602458-.2778931-.1614962c.2265739-.1308126.4025879-.3028049.5352478-.5242729l.2778969.1614962c-.1326599.221468-.3086739.3934603-.5352516.5242729z" fill="#b2b0af"/></g><g><path d="m50.5970345 13.8744564-.2778931-.1614962.4711151-.2719984.2778931.1614962z" fill="#b2b0af"/></g><g><path d="m51.3376198 11.7597361.2778931.1615009c.1233597.071681.1869621.2237616.1876259.4580011.0006905.2438221-.0670853.4774837-.1997375.698947l-.2778969-.1614962c.1326523-.2214622.200428-.4551239.1997375-.698947-.0006638-.2342395-.0642663-.38632-.1876221-.4580058z" fill="#b2b0af"/></g><g><path d="m51.7476311 11.2038107.2778931.1614971c-.0826187-.0480165-.1811104-.0709591-.2938995-.0706425-.1837158-.0015612-.3996506.0692949-.6442032.2104874l-.2778969-.1614962c.2445526-.1411924.4604874-.2120485.6442032-.2104874.1127891-.0003165.2112807.022626.2939033.0706416z" fill="#b2b0af"/></g><g><path d="m50.0732613 12.0906782-.2778969-.1614952 1.0141601-.5855265.2778969.1614962z" fill="#b2b0af"/></g><g><path d="m50.0805473 14.6610823-.2778968-.1614962-.0072861-2.5704031.2778969.1614952z" fill="#b2b0af"/></g><g><path d="m52.1680603 11.4938364c.1048317.1298819.1558151.3281364.1565437.5843344.0007248.2562094-.0489693.5125542-.15271.767005-.1001511.2523518-.2471848.4862423-.4338837.7016621-.1831207.2092171-.3987503.3875265-.6433029.528718l-1.0141602.5855265-.0072861-2.5704041 1.0141602-.5855255c.2445526-.1411924.4604874-.2120485.6442032-.2104874.1873094-.0005265.3351861.0630969.4364358.199171zm-.5646591 1.5843487c.1326523-.2214632.200428-.4551249.1997375-.698947-.0006905-.2438097-.0695686-.3986101-.2030411-.4663906-.1334686-.063693-.3098946-.0363283-.5364685.0944843l-.4711151.2719984.0045204 1.5951262.4711151-.2719984c.2265778-.1308126.4025918-.3028049.5352517-.5242729" fill="#fff"/></g><g><path d="m55.7052574 10.2457228.2778893.1615c.0330505.0191994.0471802.0561676.0473366.1108618.0002327.0826454-.0319557.167449-.1037407.2585793l-.2778969-.1614962c.071785-.0911293.1039734-.1759338.1037407-.2585793-.0001564-.0546942-.0142861-.0916624-.047329-.1108656z" fill="#b2b0af"/></g><g><path d="m56.1210976 9.6522722.2778854.1614971c-.0702095-.0408087-.154129-.054348-.2517319-.0378141-.1080284.016839-.2484055.0523558-.4175758.1003685l-.2778969-.1614962c.1691704-.0480127.3095474-.0835295.4175758-.1003675.0976029-.0165348.1815224-.0029955.2517434.0378122z" fill="#b2b0af"/></g><g><path d="m54.8616905 11.2011671-.2779045-.1614952c.0973358.0224342.2126045.022131.3422127-.0030422.1332092-.0272503.2663231-.0833874.3993912-.1602135.1438599-.0830574.2552719-.172224.3234558-.2612486l.2778969.1614962c-.0681839.0890245-.1795959.1781912-.3234558.2612486-.1330681.0768261-.2661819.1329632-.3993912.1602135-.1296082.0251731-.2448769.0254754-.3422051.0030412z" fill="#b2b0af"/></g><g><path d="m54.6867447 11.7492018-.2778969-.1614952.1749458-.5480347.2778969.1614952z" fill="#b2b0af"/></g><g><path d="m55.3624992 9.9641275-.2778969-.1614962c.0792351-.0043421.2016258-.0336285.3671761-.0878038l.2778969.1614962c-.1655502.0541754-.287941.0834618-.3671761.0878038z" fill="#b2b0af"/></g><g><path d="m56.0863762 8.6355753-.2778969-.1614962c.1367722-.0417137.2556114-.0523891.3601112-.0381937l.2778893.1615038c-.1044922-.0142031-.2233315-.0035276-.3601036.0381861z" fill="#b2b0af"/></g><g><path d="m55.2940865 9.9485407-.2778969-.1614933c.0180168.0104666.0408211.0156612.0684128.015584l.2778969.1614962c-.0275956.0000772-.050396-.0051175-.0684128-.0155869z" fill="#b2b0af"/></g><g><path d="m54.8760338 10.5269527-.2779007-.1614923c-.0104637-.0060844-.0206985-.0127563-.0307083-.0200195l.2778893.1615009c.0100173.0072575.0202522.0139303.0307197.0200109z" fill="#b2b0af"/></g><g><path d="m55.6690254 8.8144417-.2778969-.1614962c.1438599-.0830574.2841682-.1433764.4173508-.1788664l.2778969.1614962c-.1331825.03549-.2734909.095809-.4173508.1788664z" fill="#b2b0af"/></g><g><path d="m54.8453217 10.5069361-.2778969-.1614933c-.0758247-.0596933-.1157722-.1732235-.1162643-.3468103-.0004234-.148757.0351639-.3058968.1031532-.4651804l.2778969.1614962c-.0679893.1592836-.1035767.3164225-.1031532.4651794.000492.1735877.0404395.2871179.1162643.3468084z" fill="#b2b0af"/></g><g><path d="m55.6690254 8.8144417c.1438599-.0830574.2841682-.1433764.4173508-.1788664.1367722-.0417137.2556114-.0523891.3601112-.0381937l-.1605568.5438538c-.2053795-.0180178-.4105568.0342226-.6191444.1546516-.1438484.0830498-.2516518.1742592-.3198395.2674389-.0681725.0931721-.1039352.1841936-.1036873.2709589.0002441.0867939.0399895.130065.1192398.1298428.0792351-.0043421.2016258-.0336285.3671761-.0878038.1691704-.0480127.3095474-.0835295.4175758-.1003685.1116104-.0189075.2053299.0015116.2811317.0570621.0794106.0576496.1193581.1711798.1198387.3406191.0004196.148757-.0351639.3017702-.1067505.46313-.0715828.1655149-.1791992.3228359-.3192635.4740753-.1436462.1533089-.3161697.290164-.5211601.4085159-.1798096.1038132-.3489189.172452-.5145035.2142677-.1655846.0417881-.2988625.0442085-.3997993.0155764l.1749458-.5480347c.0973282.0224342.2125969.0221319.342205-.0030413.1332092-.0272503.2663231-.0833874.3993912-.1602135.1438599-.0830574.2552719-.172224.3234558-.2612486.071785-.0911303.1039734-.1759338.1037407-.2585793-.0001755-.0619917-.0183029-.1012115-.0615768-.1176033-.0396767-.0184975-.0937195-.0203915-.1585197-.007823-.0648003.0125694-.1547813.0396776-.266346.07512-.1691589.0521326-.3095589.0835371-.4175758.1003675-.1080246.0168381-.2017326-.0035877-.2811432-.0612097-.0758247-.0596905-.1157722-.1732206-.1162643-.3468084-.0004234-.148757.0351639-.3058958.1031532-.4651794.0715828-.1613598.175602-.3207588.319252-.4740677.1400605-.1512393.3125687-.2880877.5175629-.4064387z" fill="#fff"/></g><g><path d="m54.8322105 9.6949482-.2778968-.1614962c.0715828-.1613598.175602-.3207588.319252-.4740677.1400604-.1512394.3125687-.2880869.5175629-.4064388l.2778969.1614962c-.2049942.118351-.3775024.2551994-.5175629.4064388-.1436501.1533089-.2476693.3127079-.3192521.4740677z" fill="#b2b0af"/></g><g><path d="m53.2331848 12.3648853-.2778969-.1614961 1.2191544-.7038794.2778969.1614962z" fill="#b2b0af"/></g><g><path d="m53.2301865 11.3069677-.2778969-.1614952 1.0393448-.6000662.2778969.1614953z" fill="#b2b0af"/></g><g><path d="m52.7202644 13.1370487-.2778968-.1614961-.0072899-2.5704012.2778968.1614961z" fill="#b2b0af"/></g><g><path d="m52.7129745 10.5666475-.2778968-.1614961 1.6902694-.9758768.2778969.1614961z" fill="#b2b0af"/></g><g><path d="m54.403244 9.5907707.0013581.4793682-1.1759949.6789627.0015793.5578661 1.0393448-.6000661.0013122.462862-1.0393448.6000662.0016861.5950555 1.2191544-.7038793.0013504.4752493-1.7334252 1.0007934-.0072899-2.5704012z" fill="#fff"/></g><g><path d="m56.9027901 10.7222652-.2778969-.1614952-.0072861-2.5704012.2778969.1614962z" fill="#b2b0af"/></g><g><path d="m56.895504 8.151865-.2778969-.1614962.5178795-.2989983.2778969.1614961z" fill="#b2b0af"/></g><g><path d="m57.4133835 7.8528666.0072861 2.5704008-.5178795.2989978-.0072861-2.5704002z" fill="#fff"/></g><g><path d="m59.4617691 8.6736231-.2778969-.1614962-.0021438-.7562556.2778968.1614957z" fill="#b2b0af"/></g><g><path d="m59.4596252 7.917367-.2778968-.1614957.4747123-.2740746.2778969.1614957z" fill="#b2b0af"/></g><g><path d="m59.3518944 7.1511083.2778893.1615028c.0039749.0022979.0079231.0046701.0118523.0071106l-.2779007-.1614928c-.0039254-.0024433-.0078736-.0048156-.0118409-.0071206z" fill="#b2b0af"/></g><g><path d="m58.5295219 9.0830784-.2779007-.1614885c.0448723.0260668.0966873.0400496.1554565.0431471.1080818.0079708.2340508-.0316324.3743134-.1126127.1510391-.087204.2840042-.2012482.4024811-.3399973l.2778893.161499c-.1184692.1387463-.2514343.2527905-.4024734.3399944-.1402626.0809803-.2662315.1205835-.3743134.1126127-.0587693-.0030975-.1105843-.0170813-.1554528-.0431547z" fill="#b2b0af"/></g><g><path d="m59.6416016 6.5811963.2778893.1615024c-.0981827-.0570679-.2147026-.0794134-.3517113-.0633011-.1584473.0169797-.3383865.079463-.5325851.1915836l-.2778969-.1614957c.1941986-.1121211.3741379-.1746039.5325851-.1915836.1370086-.0161123.2535286.0062327.3517189.0632944z" fill="#b2b0af"/></g><g><path d="m58.1332932 9.6561174-.2778969-.1614952c-.0627441-.0364647-.1173363-.0863228-.1640892-.1497593-.1084595-.140193-.1594582-.3384056-.160183-.5946102-.0007133-.2520857.0489807-.5125866.156292-.7773557.1037369-.2585788.2507248-.504878.4374161-.7244129.1866875-.2236891.3987083-.4040384.6324654-.5389986l.2778969.1614957c-.233757.1349602-.4457779.3153095-.6324692.5389991-.1866875.2195344-.3336754.4658337-.4374123.7244134-.1073112.2647686-.1570053.5252695-.156292.7773542.0007248.2562056.0517235.4544182.160183.5946112.0467529.0634365.101345.1132936.1640892.1497583z" fill="#b2b0af"/></g><g><path d="m59.0351944 6.8709812c.1941986-.1121206.3741379-.1746039.5325851-.1915836.1620483-.0190568.2954292.0156846.4037247.0980339l-.3298683.5422902c-.162384-.1007781-.3532524-.0857954-.5798302.0450182-.1438484.0830503-.2696266.1887922-.380909.3233876-.1112976.1346307-.1973267.2795177-.2581215.4387741-.0607796.159277-.0927467.322607-.092289.483779s.0332336.2829685.0947151.3716574c.0615082.0928011.1480789.1380081.2597733.1438951.1080818.0079708.2340508-.0316324.3743134-.1126127.1510391-.087204.2840042-.2012482.4024811-.3399973l-.0021439-.7562561.4747124-.2740746.002964 1.0455303c-.1219826.1738958-.2620125.3375225-.4236832.4888287-.1580849.1450548-.3198357.2674398-.4816704.3608751-.2301598.1328831-.4425125.1975174-.6262321.1918392-.1873474-.0077419-.3316383-.0817156-.436512-.2240067-.1084595-.140193-.1594582-.3384056-.160183-.5946112-.0007133-.2520847.0489807-.5125856.156292-.7773542.1037369-.2585797.2507248-.504879.4374123-.7244134.1866913-.2236895.3987122-.4040388.6324692-.538999z" fill="#fff"/></g><g><path d="m61.9527855 6.7966576-.2778969-.1614957-.0044289-1.5620599.2778969.1614957z" fill="#b2b0af"/></g><g><path d="m61.9483566 5.2345977-.2778969-.1614957.5142708-.2969141.2778969.1614957z" fill="#b2b0af"/></g><g><path d="m62.0419579 7.7551656-.2778969-.1614957-1.1192856-.9142718.2778969.1614956z" fill="#b2b0af"/></g><g><path d="m60.4091187 6.1232777-.2778969-.1614962.4279709-.247088.2778968.1614957z" fill="#b2b0af"/></g><g><path d="m60.4164047 8.6936779-.2778969-.1614952-.007286-2.5704012.2778969.1614962z" fill="#b2b0af"/></g><g><path d="m62.4626274 4.9376836.0072861 2.5704007-.4279556.2470813-1.1192856-.9142719.0044174 1.5579405-.510685.2948437-.007286-2.5704002.4279708-.2470885 1.115696.9204684-.0044289-1.5620599z" fill="#fff"/></g></g></g></g></g></svg>