<svg id="Layer_1" enable-background="new 0 0 50 50" height="512" viewBox="0 0 50 50" width="512" xmlns="http://www.w3.org/2000/svg"><g><g><g><g><g enable-background="new"><g><path d="m12.9019041 48.9541435-3.6388903-2.1212273c-.121871-.0705452-.1988382-.2180595-.1988382-.4297371l-.0769672-26.5034122 3.6452713 2.1148033.0770063 26.5034122c0 .2180596.0705471.3656121.1924181.4361611z" fill="#ecf0f1"/></g><g><path d="m12.6313858 22.0166454 28.3062897-16.3379469.0751228 26.4980316c.0012283.43293-.2967377.9537315-.6735001 1.171257l-26.9466571 15.5576602c-.3767614.2175255-.6848927.0466537-.68612-.3862762z" fill="#e0e2e2"/><path d="m13.6328001 22.5932369 26.3095713-15.1855473.0703125 24.7719707c-.003418.0825195-.1044922.2587891-.1748047.3032227l-26.13379 15.0883794z" fill="#fff"/></g><g><path d="m40.352272 3.198034c.3194275-.184422.5823784-.0345492.5834312.3372035l.0060692 2.1410964-28.3062772 16.3426366-.0060692-2.1410961c-.0010548-.3717518.2601871-.8242664.5837097-1.0110531z" fill="#30b265"/></g><g><path d="m40.7651176 3.1568561c-.1090698-.0577059-.2501602-.0512853-.4105148.0384834l-27.1384106 15.6698453c-.3271294.1860371-.5900936.6414185-.5837126 1.0134525v2.142355l-3.6388502-2.1212254-.006421-2.1423149c0-.3720341.2565832-.8210354.5837126-1.0070324l27.1384105-15.669845c.1603546-.0962284.3078651-.1026489.4104767-.0384835z" fill="#2ecc71"/></g></g></g></g><g><g><path d="m15.1394873 18.4013233c.3931437-.2269821.7054214-.0396118.7066755.4027309.0012541.4423447-.3089428.9890671-.7020864 1.2160492-.3890467.2246151-.7054214.0396442-.7066755-.4027004-.0012542-.4423427.3130397-.9914627.7020864-1.2160797z" fill="#fff"/></g><g><path d="m20.3117714 15.4151039c.3890476-.224617.7095165-.0419769.7107716.4003668.0012531.4423437-.3171349.9937963-.7061825 1.2184114-.3890457.224617-.7054214.0396461-.7066746-.4026985-.001255-.4423446.3130398-.9914636.7020855-1.2160797z" fill="#fff"/></g><g><path d="m17.7276764 16.907032c.3890476-.224617.7095165-.0419769.7107716.4003658.0012531.4423447-.3171349.9937954-.7061825 1.2184124-.3931408.2269802-.7054214.0396461-.7066746-.4026985-.001255-.4423446.3089447-.9890995.7020855-1.2160797z" fill="#fff"/></g></g></g><g><g><path d="m22.8029919 24.9403458.0053081 1.872221-4.6279602 5.9705143 4.6550179.6206169.0052814 1.8626022-6.9558878-.3885155-.0043554-1.5361786z" fill="#3498db"/></g><g><path d="m31.0839214 17.4377937-5.4708061 18.6320191-2.5484505 1.4713478 5.4708348-18.6320362z" fill="#e74c3c"/></g><g><path d="m31.2059841 20.1832581 6.9475308.3933372.0043525 1.5361805-6.9225959 8.4012604-.0052796-1.8626003 4.6279297-5.9801331-4.6466293-.6158257z" fill="#3498db"/></g></g></g></svg>